<svg xmlns="http://www.w3.org/2000/svg" viewBox="0 0 398.22 288.08"><defs><style>.cls-1{fill:#5000b7;}</style></defs><title>Icon</title><g id="Layer_2" data-name="Layer 2"><g id="Banner"><path class="cls-1" d="M331.56,90.77V81.53H66v11H0v34.93H66v128.6a32,32,0,0,0,32,32h201.5a32,32,0,0,0,32-32V125.7h66.66V90.77ZM289,256.66l-8.57,2.4a272.15,272.15,0,0,1-69.7,9c-36.94,0-65.67-7.48-87.86-22.89a77.32,77.32,0,0,1-33.47-64c0-25.08,12.26-47.64,34.51-63.53,23-16.47,55.12-25.17,92.75-25.17,26.36,0,47.53,4.13,58.54,8l10.37,3.64L270.77,139l-13.93-4.78c-7.06-2.43-19-5.65-40.77-5.65-44.57,0-71.18,19.35-71.18,51.77s25.32,52,67.74,52a158.54,158.54,0,0,0,22.82-1.42V202.07H193V166.73h96Z"/><path class="cls-1" d="M299.53,37.11H263V0H134.54V37.11H98a32,32,0,0,0-32,32v3.39H331.56V69.14A32,32,0,0,0,299.53,37.11Zm-52.58,0H150.61v-21H247Z"/></g></g></svg>