<svg xmlns="http://www.w3.org/2000/svg" viewBox="0 0 89.66 83.31"><title>check</title><g id="Layer_2" data-name="Layer 2"><g id="Banner"><path d="M36.93,73.23C34,68.69,31,63.94,27.8,59.36A98.77,98.77,0,0,0,12.57,41.8c-.93-.81-1.86-1.63-2.74-2.49a3.85,3.85,0,0,1-1-3.86c1.07-4.23,4-6.73,8-8.11a3.52,3.52,0,0,1,3.75.92c2.91,3,5.91,5.94,8.52,9.18,2.45,3.05,4.46,6.46,6.66,9.71l.37.51C48.34,25.38,65.93,9.23,89.66,0,65.61,19.85,48.45,44.63,36.93,73.23Z"/><path d="M60.24,83.31H9.93A9.94,9.94,0,0,1,0,73.38V23.07a9.93,9.93,0,0,1,9.93-9.92H60.24a9.93,9.93,0,0,1,9.92,9.92V73.38A9.93,9.93,0,0,1,60.24,83.31ZM9.93,20.15A2.93,2.93,0,0,0,7,23.07V73.38a2.93,2.93,0,0,0,2.93,2.93H60.24a2.93,2.93,0,0,0,2.92-2.93V23.07a2.92,2.92,0,0,0-2.92-2.92Z"/></g></g></svg>