<svg xmlns="http://www.w3.org/2000/svg" viewBox="0 0 899.12 124.7"><defs><style>.cls-1{fill:#fff;}</style></defs><title>Asset 2</title><g id="Layer_2" data-name="Layer 2"><g id="Banner"><path class="cls-1" d="M895.27,65.71c-6.56-7.29-14.27-12.52-24.8-12.1-4.32.17-8.67-.48-13-.64-3.24-.12-4.5-1.93-4.31-4.88a20,20,0,0,1,1-5.39c1.19-3.32,0-4.66-3.31-4.82-7.35-.35-14.7-.79-22.05-1.23-20-1.2-40-2.79-60-3.67,1.66,0,3.31,0,5,0q38.88,1,77.76,2c5.89.14,8.19-4,5.32-9.2-1.53-2.79-4.11-4.3-6.92-5.55a53.47,53.47,0,0,0-21.95-4.61c-19.75-.05-39.5.13-59.25.1-8.36,0-16.78.28-25.07-.61-26.45-2.81-52.93-5.13-79.49-6.36-26.9-1.24-53.82-2.38-80.74-2.91C543.24,5.09,503.17,2.63,463.07,1A1254,1254,0,0,0,316.59,3.84c-45,3.41-90.14,5.71-135.29,6.59-36.47.71-72.91,1.69-109.22,5.3C54.19,17.51.39,19.08,0,45.24c-.06,3.84,2.89,5.82,5.28,8.48C15,64.54,30,68.94,43.61,72.54c5,1.33,12.82,1.68,17,5,4,3.24,4.23,7.08-1.82,7.4-4.5.24-9,.47-13.53.54-4.71.07-7.23,1.88-6.46,7,.43,2.92-.91,4.42-4,4.19-1.5-.11-3,0-4.52,0-5.45.11-6,.87-4.77,6.37.9,4.07,2.94,8,2.41,12.24s1.09,5.06,5,4.77a307.45,307.45,0,0,1,55.61,1c19.46,2.07,38.86,4.38,58.52,3.37,29.73-1.51,59.48-2.7,89.23-3.9q52.14-2.11,104.29-4c31.93-1.12,63.86-2.2,95.8-2.94,28.78-.67,57.56-1,86.34-1.24,50.52-.4,101-.22,151.56.85,1.79,0,3.57,0,5.36,0a135.82,135.82,0,0,0-17.05-2c-32.43-1.18-64.86-2.36-97.3-3-26.27-.51-52.55-.32-78.83-.3-19.75,0-39.51,0-59.25.45-24.57.59-49.14,1.71-73.71,2.52-1.4,0-3.75,1-3.75-1.83,0-2.39,2.09-1.66,3.41-1.84a575.64,575.64,0,0,1,68.52-4.92c41-.67,82,0,123,1.65q50.91,2.08,101.89,1.51c12.39-.13,24.76-.31,37.12-1.07,2.31-.14,5.32-.48,5,3.12-.6,5.82,2.75,6.55,7.29,6.7,20.06.65,40.12,1.29,60.17,2.21q23.31,1.07,46.57,2.8c18,1.32,35.41-.66,52.18-7.48,1.2-.48,3-.61,3-2.22s-1.62-1.34-2.71-1.5c-26.16-3.79-52.4-6.93-78.74-9.07-20.53-1.66-41.09-3.07-61.63-4.59,23.55.66,47.1,1.84,70.65,2.66A761.65,761.65,0,0,1,867.3,104a7.21,7.21,0,0,0,3.93-.17c10.4-5.17,20.47-10.76,26-21.79C900.32,76,899.55,70.47,895.27,65.71ZM524.83,89.61c41.61-2.56,83.15-.76,124.66,2.16C608,90.57,566.39,89.68,524.83,89.61Z"/></g></g></svg>